<svg xmlns="http://www.w3.org/2000/svg" width="60.526" height="60.526" viewBox="0 0 60.526 60.526">
  <g id="Group_278" data-name="Group 278" transform="translate(-944.997 -279.943)">
    <g id="Group_275" data-name="Group 275" transform="translate(944.997 279.943)">
      <g id="Group_252" data-name="Group 252">
        <g id="Group_248" data-name="Group 248" transform="translate(0 29.309)">
          <rect id="Rectangle_90" data-name="Rectangle 90" width="5.083" height="1.89" fill="#ed4b73"/>
        </g>
        <g id="Group_249" data-name="Group 249" transform="translate(55.443 29.309)">
          <rect id="Rectangle_91" data-name="Rectangle 91" width="5.083" height="1.89" fill="#ed4b73"/>
        </g>
        <g id="Group_250" data-name="Group 250" transform="translate(29.309 55.443)">
          <rect id="Rectangle_92" data-name="Rectangle 92" width="1.89" height="5.083" fill="#ed4b73"/>
        </g>
        <g id="Group_251" data-name="Group 251" transform="translate(29.309)">
          <rect id="Rectangle_93" data-name="Rectangle 93" width="1.89" height="5.083" fill="#ed4b73"/>
        </g>
      </g>
    </g>
    <g id="Group_276" data-name="Group 276" transform="translate(948.593 283.518)">
      <g id="Group_264" data-name="Group 264" transform="translate(0 38.468)">
        <rect id="Rectangle_94" data-name="Rectangle 94" width="5.083" height="1.89" transform="translate(0 2.535) rotate(-29.913)" fill="#ed4b73"/>
      </g>
      <g id="Group_265" data-name="Group 265" transform="translate(47.99 10.743)">
        <rect id="Rectangle_95" data-name="Rectangle 95" width="5.083" height="1.89" transform="matrix(0.866, -0.5, 0.5, 0.866, 0, 2.543)" fill="#ed4b73"/>
      </g>
      <g id="Group_266" data-name="Group 266" transform="translate(38.442 48.019)">
        <rect id="Rectangle_96" data-name="Rectangle 96" width="1.89" height="5.083" transform="translate(0 0.945) rotate(-29.993)" fill="#ed4b73"/>
      </g>
      <g id="Group_267" data-name="Group 267" transform="translate(10.716 0)">
        <rect id="Rectangle_97" data-name="Rectangle 97" width="1.89" height="5.083" transform="translate(0 0.945) rotate(-29.993)" fill="#ed4b73"/>
      </g>
    </g>
    <g id="Group_277" data-name="Group 277" transform="translate(948.575 283.529)">
      <g id="Group_269" data-name="Group 269" transform="translate(10.74 48.014)">
        <rect id="Rectangle_98" data-name="Rectangle 98" width="5.083" height="1.89" transform="translate(0 4.403) rotate(-60.007)" fill="#ed4b73"/>
      </g>
      <g id="Group_270" data-name="Group 270" transform="translate(38.452 0)">
        <rect id="Rectangle_99" data-name="Rectangle 99" width="5.083" height="1.89" transform="translate(0 4.403) rotate(-60.007)" fill="#ed4b73"/>
      </g>
      <g id="Group_271" data-name="Group 271" transform="translate(48.019 38.444)">
        <rect id="Rectangle_100" data-name="Rectangle 100" width="1.89" height="5.083" transform="translate(0 1.636) rotate(-59.974)" fill="#ed4b73"/>
      </g>
      <g id="Group_272" data-name="Group 272" transform="translate(0 10.722)">
        <rect id="Rectangle_101" data-name="Rectangle 101" width="1.89" height="5.083" transform="matrix(0.5, -0.866, 0.866, 0.5, 0, 1.636)" fill="#ed4b73"/>
      </g>
    </g>
  </g>
</svg>
